<svg width="1012" height="89" viewBox="0 0 1012 89" fill="none" xmlns="http://www.w3.org/2000/svg">
<g clip-path="url(#clip0_1_23)">
<path d="M125.672 1.25836H142.223V74.2429H188.908V87.856H125.672V1.25836Z" fill="white"/>
<path d="M211.737 1.25836H228.288V74.2429H274.973V87.856H211.737V1.25836Z" fill="white"/>
<path d="M304.764 86.1401C298.372 84.1954 293.236 81.6787 289.469 78.59L295.176 66.1208C298.829 68.8663 303.28 71.1542 308.645 72.9846C314.01 74.8149 319.261 75.6157 324.625 75.6157C331.246 75.6157 336.268 74.5861 339.464 72.527C342.774 70.4679 344.372 67.7224 344.372 64.4049C344.372 61.8882 343.459 59.9434 341.633 58.2275C339.806 56.626 337.524 55.3676 334.67 54.4524C331.816 53.5373 328.05 52.5077 323.141 51.3638C316.293 49.7622 310.814 48.2751 306.591 46.6735C302.367 45.072 298.715 42.6697 295.747 39.3522C292.779 36.0347 291.181 31.4589 291.181 25.8535C291.181 21.0488 292.551 16.7018 295.176 12.8123C297.802 8.92288 301.911 5.83419 307.275 3.43188C312.64 1.14396 319.261 0 327.136 0C332.615 0 337.98 0.686375 343.231 1.94473C348.481 3.31748 353.047 5.14781 356.928 7.66452L351.677 20.1337C347.797 17.9602 343.687 16.2442 339.464 15.1003C335.241 13.9563 331.132 13.3843 327.136 13.3843C320.63 13.3843 315.722 14.4139 312.526 16.5874C309.33 18.7609 307.732 21.6208 307.732 25.1671C307.732 27.6838 308.645 29.6285 310.471 31.2301C312.298 32.8316 314.581 34.09 317.434 34.8907C320.288 35.8059 324.055 36.8355 328.963 37.9794C335.583 39.4666 341.062 40.9537 345.285 42.6697C349.509 44.2712 353.161 46.7879 356.243 49.991C359.211 53.3085 360.809 57.7699 360.809 63.3753C360.809 68.1799 359.439 72.527 356.814 76.302C354.189 80.1915 350.079 83.2802 344.6 85.5681C339.122 87.856 332.501 89 324.739 89C317.891 89 311.27 88.0848 304.764 86.1401Z" fill="white"/>
<path d="M403.727 14.8715H374.164V1.25836H449.955V14.8715H420.392V87.856H403.841V14.8715H403.727Z" fill="white"/>
<path d="M636.695 87.7416L618.432 62.3458C617.633 62.4602 616.491 62.4602 615.007 62.4602H594.804V87.6273H578.253V1.25836H615.007C622.769 1.25836 629.504 2.51672 635.211 4.91903C640.918 7.43574 645.37 10.982 648.452 15.5578C651.533 20.1337 653.017 25.6247 653.017 32.0309C653.017 38.5514 651.419 44.1568 648.109 48.847C644.799 53.5373 640.119 57.0836 633.955 59.3715L654.501 87.856H636.695V87.7416ZM630.645 19.3329C626.878 16.3586 621.399 14.8715 614.208 14.8715H594.804V49.419H614.208C621.399 49.419 626.878 47.9319 630.645 44.9576C634.412 41.9833 636.238 37.6363 636.238 32.1453C636.238 26.5399 634.412 22.3072 630.645 19.3329Z" fill="white"/>
<path d="M678.7 1.25836H695.251V74.2429H741.935V87.856H678.7V1.25836Z" fill="white"/>
<path d="M761.568 1.25836H778.119V87.856H761.568V1.25836Z" fill="white"/>
<path d="M872.859 43.4704H888.61V78.018C884.045 81.5643 878.68 84.3098 872.516 86.1401C866.352 88.0848 860.074 89 853.682 89C844.551 89 836.333 87.0553 829.027 83.2802C821.722 79.3907 816.015 74.1285 811.792 67.3792C807.568 60.6298 805.514 52.9653 805.514 44.5C805.514 36.0347 807.568 28.3702 811.792 21.6208C816.015 14.8715 821.722 9.60925 829.027 5.71979C836.333 1.83033 844.665 0 853.797 0C861.33 0 868.065 1.14396 874.228 3.54627C880.392 5.94859 885.529 9.49486 889.638 14.0707L879.136 23.9087C872.288 17.2738 864.069 14.0707 854.481 14.0707C848.203 14.0707 842.61 15.329 837.702 17.9602C832.794 20.4769 829.027 24.1375 826.174 28.7134C823.434 33.2892 822.065 38.5514 822.065 44.5C822.065 50.2198 823.434 55.482 826.174 60.0578C828.913 64.6337 832.794 68.2943 837.702 70.9254C842.61 73.5565 848.089 74.9293 854.367 74.9293C861.33 74.9293 867.494 73.4422 872.744 70.4679V43.4704H872.859Z" fill="white"/>
<path d="M63.1216 5.49101L60.7246 1.25836H49.0819L46.6849 5.49101L0 87.7416H16.4367L27.9653 67.3792H81.8412L93.3697 87.7416H109.806L63.1216 5.49101ZM35.727 53.8805L54.9032 20.0193L74.1936 53.8805H35.727Z" fill="white"/>
<path d="M511.479 5.49101L509.082 1.25836H497.439L495.042 5.49101L448.357 87.856H464.794L476.323 67.4936H530.199L541.727 87.856H558.164L511.479 5.49101ZM483.97 53.8805L503.146 20.0193L522.437 53.8805H483.97Z" fill="white"/>
<path d="M965.315 5.49101L962.918 1.25836H951.275L948.878 5.49101L902.194 87.856H918.63L930.159 67.4936H984.035L995.563 87.856H1012L965.315 5.49101ZM937.806 53.8805L956.983 20.0193L976.273 53.8805H937.806Z" fill="white"/>
</g>
<defs>
<clipPath id="clip0_1_23">
<rect width="1012" height="89" fill="white"/>
</clipPath>
</defs>
</svg>
