<svg width="320" height="61" viewBox="0 0 320 61" fill="none" xmlns="http://www.w3.org/2000/svg">
<g clip-path="url(#clip0_1_4)">
<path d="M108.546 26.3553H112.494V43.9255H123.632V47.2027H108.546V26.3553Z" fill="white"/>
<path d="M129.078 26.3553H133.027V43.9255H144.165V47.2027H129.078V26.3553Z" fill="white"/>
<path d="M151.272 46.8172C149.747 46.349 148.522 45.7431 147.623 44.9995L148.985 41.9977C149.856 42.6587 150.918 43.2095 152.198 43.6501C153.478 44.0907 154.731 44.2835 156.011 44.2835C157.59 44.2835 158.788 44.0357 159.551 43.54C160.34 43.0442 160.722 42.3833 160.722 41.5847C160.722 40.9788 160.504 40.5106 160.068 40.0975C159.632 39.712 159.088 39.409 158.407 39.1887C157.726 38.9684 156.828 38.7205 155.657 38.4452C154.023 38.0596 152.716 37.7016 151.708 37.316C150.7 36.9305 149.829 36.3521 149.121 35.5535C148.413 34.7549 148.032 33.6533 148.032 32.3038C148.032 31.1472 148.358 30.1007 148.985 29.1643C149.611 28.228 150.591 27.4844 151.871 26.9061C153.151 26.3553 154.731 26.0799 156.61 26.0799C157.917 26.0799 159.197 26.2451 160.449 26.5481C161.702 26.8786 162.791 27.3192 163.717 27.9251L162.464 30.9269C161.539 30.4036 160.558 29.9905 159.551 29.7151C158.543 29.4397 157.563 29.302 156.61 29.302C155.057 29.302 153.886 29.5499 153.124 30.0731C152.362 30.5964 151.98 31.2849 151.98 32.1386C151.98 32.7445 152.198 33.2126 152.634 33.5982C153.07 33.9837 153.614 34.2867 154.295 34.4795C154.976 34.6998 155.874 34.9476 157.045 35.223C158.625 35.581 159.932 35.9391 160.939 36.3521C161.947 36.7377 162.818 37.3436 163.554 38.1147C164.262 38.9133 164.643 39.9874 164.643 41.3368C164.643 42.4935 164.316 43.54 163.69 44.4488C163.064 45.3851 162.083 46.1287 160.776 46.6795C159.469 47.2302 157.89 47.5056 156.038 47.5056C154.404 47.5056 152.797 47.2578 151.272 46.8172Z" fill="white"/>
<path d="M174.882 29.6325H167.829V26.3553H185.911V29.6325H178.858V47.2027H174.909V29.6325H174.882Z" fill="white"/>
<path d="M230.435 47.2027L226.078 41.0889C225.887 41.1165 225.615 41.1165 225.261 41.1165H220.441V47.1752H216.492V26.3553H225.261C227.113 26.3553 228.719 26.6582 230.081 27.2366C231.442 27.8424 232.504 28.6962 233.24 29.7977C233.975 30.8993 234.329 32.2212 234.329 33.7634C234.329 35.3332 233.948 36.6826 233.158 37.8117C232.368 38.9409 231.252 39.7946 229.781 40.3454L234.683 47.2027H230.435ZM229.019 30.7065C228.12 29.9905 226.813 29.6325 225.097 29.6325H220.468V37.9494H225.097C226.813 37.9494 228.12 37.5914 229.019 36.8754C229.917 36.1594 230.353 35.1129 230.353 33.791C230.353 32.4415 229.917 31.4226 229.019 30.7065Z" fill="white"/>
<path d="M240.483 26.3553H244.432V43.9255H255.57V47.2027H240.483V26.3553Z" fill="white"/>
<path d="M260.254 26.3553H264.202V47.2027H260.254V26.3553Z" fill="white"/>
<path d="M286.777 36.5449H290.535V44.8619C289.446 45.7156 288.166 46.3765 286.696 46.8172C285.225 47.2853 283.727 47.5056 282.202 47.5056C280.024 47.5056 278.063 47.0375 276.32 46.1287C274.578 45.1923 273.216 43.9255 272.208 42.3007C271.201 40.6758 270.711 38.8307 270.711 36.7928C270.711 34.7549 271.201 32.9097 272.208 31.2849C273.216 29.66 274.578 28.3932 276.32 27.4569C278.063 26.5205 280.051 26.0799 282.23 26.0799C284.027 26.0799 285.634 26.3553 287.104 26.9336C288.575 27.512 289.8 28.3657 290.78 29.4673L288.275 31.8357C286.641 30.2384 284.68 29.4673 282.393 29.4673C280.895 29.4673 279.561 29.7702 278.39 30.4036C277.219 31.0095 276.32 31.8907 275.64 32.9923C274.986 34.0939 274.659 35.3607 274.659 36.7928C274.659 38.1698 274.986 39.4366 275.64 40.5381C276.293 41.6397 277.219 42.521 278.39 43.1544C279.561 43.7878 280.868 44.1183 282.366 44.1183C284.027 44.1183 285.497 43.7603 286.75 43.0442V36.5449H286.777Z" fill="white"/>
<path d="M93.6227 27.3743L93.0508 26.3553H90.2732L89.7013 27.3743L78.5635 47.2027H82.4849L85.2353 42.3007H98.0887L100.839 47.2027H104.76L93.6227 27.3743ZM87.0598 39.0235L91.6348 30.8718L96.2369 39.0235H87.0598Z" fill="white"/>
<path d="M200.562 27.3743L199.99 26.3553H197.212L196.64 27.3743L185.503 47.2027H189.424L192.174 42.3007H205.055L207.805 47.2027H211.727L200.562 27.3743ZM194.026 39.0235L198.601 30.8718L203.203 39.0235H194.026Z" fill="white"/>
<path d="M308.835 27.3743L308.263 26.3553H305.486L304.914 27.3743L293.776 47.2027H297.697L300.448 42.3007H313.301L316.051 47.2027H319.973L308.835 27.3743ZM302.299 39.0235L306.874 30.8718L311.477 39.0235H302.299Z" fill="white"/>
<path d="M69.7405 61H60.7268L56.0974 52.9309L54.1639 49.5711L45.4498 34.3693H54.4907L63.1776 49.5711L65.1383 52.9309L69.7405 61Z" fill="#FEDB01"/>
<path d="M36.9807 49.5711H27.7491L23.5554 42.2456L21.6765 38.9959L19.6341 42.6036L15.6582 49.5711L13.7248 52.9309L9.14986 61H0L4.60216 52.9309L6.50838 49.5711L15.0319 34.6172L15.1681 34.3693L17.1015 30.9819L17.1832 30.8442L21.7037 22.9404L26.2514 30.8442L26.2786 30.9269L28.1304 34.1765L28.2665 34.3693L36.9807 49.5711Z" fill="#FEDB01"/>
<path d="M56.642 61H12.8534L17.4555 52.9309L19.3618 49.5711L21.4858 45.8533L23.6099 49.5711L25.5434 52.9309H42.8083L40.8748 49.5711L32.1607 34.3693L30.1455 30.8442L30.0911 30.7616L28.2121 27.512L23.6371 19.5255L28.2393 11.4564L30.2544 7.8763L34.7477 0L39.3498 7.98646L41.2016 11.2361L52.4483 30.8442H43.4346L36.7084 19.14L34.8566 15.8903L32.8142 19.4429L34.666 22.7201L39.3498 30.8442L41.365 34.3693L50.0791 49.5711L52.0126 52.9309L56.642 61Z" fill="#FEDB01"/>
</g>
<defs>
<clipPath id="clip0_1_4">
<rect width="320" height="61" fill="white"/>
</clipPath>
</defs>
</svg>
